<svg xmlns="http://www.w3.org/2000/svg" width="126.688" height="54.342" viewBox="0 0 126.688 54.342">
	  <g id="besa-header-logo" transform="translate(0)">
	    <path id="Path_3381" data-name="Path 3381" d="M11.222,70.91h2.69a2.445,2.445,0,0,1,1.7.549,1.753,1.753,0,0,1,.6,1.317,1.526,1.526,0,0,1-1.372,1.537,1.7,1.7,0,0,1,1.1.6,1.771,1.771,0,0,1,.439,1.153,1.67,1.67,0,0,1-.6,1.317,2.743,2.743,0,0,1-1.7.549h-2.8V70.91Zm1.208.933v2.086h1.427a1.4,1.4,0,0,0,.878-.274,1.061,1.061,0,0,0,0-1.537,1.4,1.4,0,0,0-.878-.274Zm0,5.215h1.537a1.57,1.57,0,0,0,.933-.274,1.194,1.194,0,0,0,0-1.647,1.291,1.291,0,0,0-.933-.329H12.43Zm6.7-1.921v2.854H17.974V70.91h2.415a2.719,2.719,0,0,1,1.866.6A1.879,1.879,0,0,1,22.914,73a2.072,2.072,0,0,1-.439,1.262,2.232,2.232,0,0,1-1.317.768l1.866,2.909H21.6L19.84,75.081h-.714Zm0-3.293V74.2h1.262a1.342,1.342,0,0,0,.988-.329,1.336,1.336,0,0,0,0-1.757,1.342,1.342,0,0,0-.988-.329H19.126Zm5.544,6.148V70.91h1.153v7.081Zm2.635-6.148V70.91h4.94v.878H30.379v6.148H29.226V71.843H27.305Zm6.367,6.148V70.91h1.153v7.081Zm5.215-6.2a1.348,1.348,0,0,0-.823.274.921.921,0,0,0-.329.768.831.831,0,0,0,.384.768,2.391,2.391,0,0,0,.933.384,8.026,8.026,0,0,1,1.1.274,1.733,1.733,0,0,1,.933.6,1.774,1.774,0,0,1,.384,1.208,2.025,2.025,0,0,1-.659,1.427,2.369,2.369,0,0,1-1.757.6,3.192,3.192,0,0,1-1.811-.494,1.742,1.742,0,0,1-.714-1.427h1.262a1.233,1.233,0,0,0,.329.768,1.065,1.065,0,0,0,.878.274,1.291,1.291,0,0,0,.933-.329.966.966,0,0,0,.329-.714.875.875,0,0,0-.22-.659,1.139,1.139,0,0,0-.549-.329c-.22-.055-.439-.165-.714-.22a4.573,4.573,0,0,1-.823-.22,1.7,1.7,0,0,1-.714-.329,2.6,2.6,0,0,1-.549-.549,1.682,1.682,0,0,1-.22-.933,1.879,1.879,0,0,1,.659-1.482,2.538,2.538,0,0,1,1.7-.549,2.725,2.725,0,0,1,1.7.494,1.815,1.815,0,0,1,.714,1.427H40.04a.957.957,0,0,0-.329-.659A.988.988,0,0,0,38.887,71.788Zm8.728-.878h1.153v7.081H47.615V74.862H44.321v3.129H43.169V70.91h1.153v3.019h3.293Zm10.21,0v.878H55.08v2.141H57.5v.878H55.08v2.251h2.745v.878h-3.9V70.91Zm4.007,0a4.05,4.05,0,0,1,2.745.933,3.469,3.469,0,0,1,1.043,2.58A3.275,3.275,0,0,1,64.576,77a3.953,3.953,0,0,1-2.745.933H59.526V70.91Zm-1.1,6.2h1.153a2.526,2.526,0,0,0,1.921-.714,2.721,2.721,0,0,0,.659-1.921,2.383,2.383,0,0,0-2.58-2.635H60.734v5.27Zm6.312-1.7v-4.5H68.2v4.5a1.618,1.618,0,0,0,.439,1.208,1.921,1.921,0,0,0,2.305,0,1.618,1.618,0,0,0,.439-1.208v-4.5h1.153v4.5a2.452,2.452,0,0,1-.823,1.976,3.293,3.293,0,0,1-3.952,0,2.323,2.323,0,0,1-.714-1.976Zm7.959,1.647a3.712,3.712,0,0,1,0-5.16,3.841,3.841,0,0,1,4.611-.494A3.059,3.059,0,0,1,80.879,73H79.506a1.924,1.924,0,0,0-1.866-1.043,2.24,2.24,0,0,0-1.757.714,2.973,2.973,0,0,0,0,3.733,2.24,2.24,0,0,0,1.757.714,1.875,1.875,0,0,0,1.866-1.043h1.372a3.208,3.208,0,0,1-1.262,1.537,3.641,3.641,0,0,1-2.031.549,4.392,4.392,0,0,1-2.58-1.1Zm12.3.933-.494-1.427H83.843l-.494,1.427H82.141l2.525-7.081h1.317l2.525,7.081H87.3Zm-3.184-2.36h2.305L85.27,72.337,84.117,75.63Zm5.434-3.787V70.91h4.94v.878H92.625v6.148H91.472V71.843Zm6.367,6.148V70.91h1.153v7.081H95.919Zm6.2.055A3.52,3.52,0,0,1,99.541,77a3.712,3.712,0,0,1,0-5.16,3.653,3.653,0,0,1,2.58-1.043,3.435,3.435,0,0,1,2.58,1.043,3.712,3.712,0,0,1,0,5.16A3.435,3.435,0,0,1,102.121,78.046Zm0-1.043a2.24,2.24,0,0,0,1.757-.714,2.973,2.973,0,0,0,0-3.733,2.519,2.519,0,0,0-3.513,0,2.973,2.973,0,0,0,0,3.733A2.319,2.319,0,0,0,102.121,77Zm9.716-6.093h1.153v7.081h-1.153l-3.458-5.27v5.27h-1.153V70.91h1.153l3.458,5.27Zm7.74,7.081-.494-1.427h-2.964l-.494,1.427h-1.208l2.525-7.081h1.317l2.525,7.081h-1.208Zm-3.129-2.36h2.305L117.6,72.337l-1.153,3.293Zm5.764-4.721h1.153v6.148h2.36v.878h-3.568V70.91ZM7.16,82.217a1.348,1.348,0,0,0-.823.274.921.921,0,0,0-.329.768.831.831,0,0,0,.384.768,2.391,2.391,0,0,0,.933.384,8.024,8.024,0,0,1,1.1.274,1.733,1.733,0,0,1,.933.6A1.774,1.774,0,0,1,9.74,86.5a2.025,2.025,0,0,1-.659,1.427,2.369,2.369,0,0,1-1.757.6,3.192,3.192,0,0,1-1.811-.494A1.742,1.742,0,0,1,4.8,86.609H6.062a1.233,1.233,0,0,0,.329.768,1.065,1.065,0,0,0,.878.274,1.291,1.291,0,0,0,.933-.329.966.966,0,0,0,.329-.714.875.875,0,0,0-.22-.659,1.139,1.139,0,0,0-.549-.329c-.22-.055-.439-.165-.714-.22s-.494-.22-.768-.274a1.7,1.7,0,0,1-.714-.329,2.6,2.6,0,0,1-.549-.549,1.682,1.682,0,0,1-.22-.933,1.879,1.879,0,0,1,.659-1.482,2.538,2.538,0,0,1,1.7-.549,2.725,2.725,0,0,1,1.7.494,1.815,1.815,0,0,1,.714,1.427H8.313a.957.957,0,0,0-.329-.659,1.117,1.117,0,0,0-.823-.329Zm4.227,3.623v-4.5H12.54v4.5a1.618,1.618,0,0,0,.439,1.208,1.546,1.546,0,0,0,1.153.384,1.546,1.546,0,0,0,1.153-.384,1.618,1.618,0,0,0,.439-1.208v-4.5h1.153v4.5a2.452,2.452,0,0,1-.823,1.976,3.065,3.065,0,0,1-1.976.659,3.065,3.065,0,0,1-1.976-.659A2.323,2.323,0,0,1,11.387,85.84Zm11.582-3.9a1.879,1.879,0,0,1,.659,1.482,2.027,2.027,0,0,1-.6,1.482,2.624,2.624,0,0,1-1.866.6H19.895v2.854H18.742V81.339h2.415A2.57,2.57,0,0,1,22.969,81.943Zm-3.074,2.69h1.262a1.342,1.342,0,0,0,.988-.329,1.336,1.336,0,0,0,0-1.757,1.342,1.342,0,0,0-.988-.329H19.895Zm9.441-2.69a1.879,1.879,0,0,1,.659,1.482,2.027,2.027,0,0,1-.6,1.482,2.624,2.624,0,0,1-1.866.6H26.262v2.854H25.11V81.339h2.415a2.667,2.667,0,0,1,1.811.6Zm-3.129,2.69H27.47a1.342,1.342,0,0,0,.988-.329,1.336,1.336,0,0,0,0-1.757,1.342,1.342,0,0,0-.988-.329H26.207Zm5.215-3.293h1.153v6.148h2.36v.878H31.367V81.339ZM36.2,88.42V81.339H37.35V88.42Zm6.916-7.081v.878H40.369v2.141h2.415v.878H40.369v2.251h2.745v.878h-3.9V81.339Zm2.854,4.227V88.42H44.815V81.339h2.415a2.719,2.719,0,0,1,1.866.6,1.879,1.879,0,0,1,.659,1.482,2.072,2.072,0,0,1-.439,1.262A2.232,2.232,0,0,1,48,85.456l1.866,2.909H48.438l-1.757-2.854h-.714Zm0-3.293v2.36h1.262a1.342,1.342,0,0,0,.988-.329,1.336,1.336,0,0,0,0-1.757,1.342,1.342,0,0,0-.988-.329H45.968Zm7.794-.055a1.348,1.348,0,0,0-.823.274.921.921,0,0,0-.329.768.831.831,0,0,0,.384.768,2.391,2.391,0,0,0,.933.384,8.024,8.024,0,0,1,1.1.274,1.733,1.733,0,0,1,.933.6,1.774,1.774,0,0,1,.384,1.208,2.025,2.025,0,0,1-.659,1.427,2.369,2.369,0,0,1-1.757.6,3.192,3.192,0,0,1-1.811-.494,1.742,1.742,0,0,1-.714-1.427h1.262a1.233,1.233,0,0,0,.329.768,1.065,1.065,0,0,0,.878.274,1.291,1.291,0,0,0,.933-.329.966.966,0,0,0,.329-.714.875.875,0,0,0-.22-.659,1.139,1.139,0,0,0-.549-.329c-.22-.055-.439-.165-.714-.22a4.573,4.573,0,0,1-.823-.22,1.7,1.7,0,0,1-.714-.329,2.6,2.6,0,0,1-.549-.549,1.682,1.682,0,0,1-.22-.933,1.879,1.879,0,0,1,.659-1.482,2.538,2.538,0,0,1,1.7-.549,2.725,2.725,0,0,1,1.7.494,1.815,1.815,0,0,1,.714,1.427H54.86a.957.957,0,0,0-.329-.659.831.831,0,0,0-.768-.384Zm12.35,6.2-.494-1.427H62.655l-.494,1.427H60.9l2.525-7.081h1.317l2.525,7.081Zm-3.184-2.36h2.305l-1.153-3.293Zm7.959-3.842a1.348,1.348,0,0,0-.823.274.921.921,0,0,0-.329.768.831.831,0,0,0,.384.768,2.391,2.391,0,0,0,.933.384,8.024,8.024,0,0,1,1.1.274,1.733,1.733,0,0,1,.933.6,1.774,1.774,0,0,1,.384,1.208,2.025,2.025,0,0,1-.659,1.427,2.369,2.369,0,0,1-1.757.6,3.192,3.192,0,0,1-1.811-.494,1.742,1.742,0,0,1-.714-1.427h1.262a1.233,1.233,0,0,0,.329.768,1.065,1.065,0,0,0,.878.274,1.291,1.291,0,0,0,.933-.329.966.966,0,0,0,.329-.714.875.875,0,0,0-.22-.659,1.139,1.139,0,0,0-.549-.329c-.22-.055-.439-.165-.714-.22a4.573,4.573,0,0,1-.823-.22,1.7,1.7,0,0,1-.714-.329,2.6,2.6,0,0,1-.549-.549,1.682,1.682,0,0,1-.22-.933,1.879,1.879,0,0,1,.659-1.482,2.538,2.538,0,0,1,1.7-.549,2.725,2.725,0,0,1,1.7.494,1.815,1.815,0,0,1,.714,1.427H71.986a.957.957,0,0,0-.329-.659c-.11-.274-.384-.384-.768-.384Zm6.477,0a1.348,1.348,0,0,0-.823.274.921.921,0,0,0-.329.768.831.831,0,0,0,.384.768,2.391,2.391,0,0,0,.933.384,8.025,8.025,0,0,1,1.1.274,1.733,1.733,0,0,1,.933.6,1.774,1.774,0,0,1,.384,1.208,2.025,2.025,0,0,1-.659,1.427,2.369,2.369,0,0,1-1.757.6,3.192,3.192,0,0,1-1.811-.494,1.742,1.742,0,0,1-.714-1.427h1.262a1.233,1.233,0,0,0,.329.768,1.065,1.065,0,0,0,.878.274,1.291,1.291,0,0,0,.933-.329.966.966,0,0,0,.329-.714.875.875,0,0,0-.22-.659,1.139,1.139,0,0,0-.549-.329c-.22-.055-.439-.165-.714-.22a4.573,4.573,0,0,1-.823-.22,1.7,1.7,0,0,1-.714-.329,2.6,2.6,0,0,1-.549-.549,1.682,1.682,0,0,1-.22-.933,1.879,1.879,0,0,1,.659-1.482,2.538,2.538,0,0,1,1.7-.549,2.725,2.725,0,0,1,1.7.494,1.815,1.815,0,0,1,.714,1.427H78.463a.957.957,0,0,0-.329-.659.831.831,0,0,0-.768-.384Zm7.465,6.258a3.52,3.52,0,0,1-2.58-1.043,3.712,3.712,0,0,1,0-5.16,3.653,3.653,0,0,1,2.58-1.043,3.435,3.435,0,0,1,2.58,1.043,3.712,3.712,0,0,1,0,5.16A3.52,3.52,0,0,1,84.831,88.475Zm0-1.043a2.24,2.24,0,0,0,1.757-.714,2.973,2.973,0,0,0,0-3.733,2.519,2.519,0,0,0-3.513,0,2.973,2.973,0,0,0,0,3.733A2.24,2.24,0,0,0,84.831,87.432Zm5.709.055a3.712,3.712,0,0,1,0-5.16,3.841,3.841,0,0,1,4.611-.494,3.059,3.059,0,0,1,1.262,1.592H95.04a1.924,1.924,0,0,0-1.866-1.043,2.24,2.24,0,0,0-1.757.714,2.973,2.973,0,0,0,0,3.733,2.24,2.24,0,0,0,1.757.714A1.875,1.875,0,0,0,95.04,86.5h1.372a3.208,3.208,0,0,1-1.262,1.537,3.641,3.641,0,0,1-2.031.549,4.115,4.115,0,0,1-2.58-1.1ZM98,88.42V81.339h1.153V88.42Zm7.74,0-.494-1.427h-2.964l-.494,1.427h-1.208l2.525-7.081h1.317l2.525,7.081h-1.208Zm-3.129-2.36h2.305l-1.153-3.293-1.153,3.293Zm5.379-3.787v-.933h4.94v.878h-1.866v6.148h-1.153V82.272h-1.921Zm6.422,6.148V81.339h1.153V88.42h-1.153Zm6.2.055a3.52,3.52,0,0,1-2.58-1.043,3.712,3.712,0,0,1,0-5.16,3.653,3.653,0,0,1,2.58-1.043,3.435,3.435,0,0,1,2.58,1.043,3.712,3.712,0,0,1,0,5.16A3.435,3.435,0,0,1,120.619,88.475Zm0-1.043a2.24,2.24,0,0,0,1.757-.714,2.973,2.973,0,0,0,0-3.733,2.519,2.519,0,0,0-3.513,0,2.973,2.973,0,0,0,0,3.733A2.319,2.319,0,0,0,120.619,87.432Zm9.716-6.093h1.153V88.42h-1.153l-3.458-5.27v5.27h-1.208V81.339h1.153l3.458,5.27v-5.27Z" transform="translate(-4.8 -34.243)" fill="#b4b4b4"/>
	    <path id="Path_3382" data-name="Path 3382" d="M165.6,31.657V5.2" transform="translate(-77.336 -4.651)" fill="none" stroke="#b4b4b4" stroke-miterlimit="10" stroke-width="1"/>
	    <path id="Path_3383" data-name="Path 3383" d="M36.006,37.963a8.394,8.394,0,0,1-6.367-2.525,9.3,9.3,0,0,1-2.47-6.752,9.331,9.331,0,0,1,2.525-6.752,8.518,8.518,0,0,1,6.422-2.525,8.652,8.652,0,0,1,6.367,2.415,8.56,8.56,0,0,1,2.47,6.367A8.5,8.5,0,0,1,44.9,29.4a.6.6,0,0,1-.6.549H31.12a.054.054,0,0,0-.055.055A5.1,5.1,0,0,0,32.6,33.517a4.853,4.853,0,0,0,3.458,1.317,4.353,4.353,0,0,0,4.117-2.251.489.489,0,0,1,.439-.274h3.239a.352.352,0,0,1,.329.439,8.132,8.132,0,0,1-2.8,3.623,8.68,8.68,0,0,1-5.379,1.592Zm3.568-14.107a4.986,4.986,0,0,0-3.513-1.317A4.853,4.853,0,0,0,32.6,23.856a5.376,5.376,0,0,0-1.592,3.458.192.192,0,0,0,.055.11h9.825a.054.054,0,0,0,.055-.055,4.367,4.367,0,0,0-1.372-3.513Zm8.234.988A4.808,4.808,0,0,1,49.728,21a7.724,7.724,0,0,1,5.05-1.592,7.548,7.548,0,0,1,5,1.537,5.517,5.517,0,0,1,1.921,3.733.42.42,0,0,1-.439.494H58.346a.466.466,0,0,1-.439-.384,3,3,0,0,0-.878-1.7,3.387,3.387,0,0,0-2.36-.768,3.771,3.771,0,0,0-2.36.659,2.16,2.16,0,0,0-.823,1.757,1.9,1.9,0,0,0,1.1,1.7,8.244,8.244,0,0,0,2.635.933c1.043.22,2.086.439,3.129.714a5.789,5.789,0,0,1,2.635,1.537,4.245,4.245,0,0,1,1.1,3.019A4.569,4.569,0,0,1,60.1,36.481,8.283,8.283,0,0,1,55,37.963a8.115,8.115,0,0,1-5.05-1.482,5.455,5.455,0,0,1-2.086-3.733.42.42,0,0,1,.439-.494h2.964a.466.466,0,0,1,.439.384,2.764,2.764,0,0,0,.933,1.7,3.638,3.638,0,0,0,2.415.768,4.057,4.057,0,0,0,2.415-.659,2.064,2.064,0,0,0,.878-1.757,2.042,2.042,0,0,0-1.1-1.757A8.244,8.244,0,0,0,54.614,30c-1.043-.22-2.086-.439-3.129-.714a5.7,5.7,0,0,1-2.635-1.482,4.166,4.166,0,0,1-1.043-2.964ZM73.88,37.963a9.057,9.057,0,0,0,5.489-1.7.414.414,0,0,1,.439-.055c.6.329,2.305,1.208,3.129,1.647a.3.3,0,0,0,.439-.274l-.055-8.4v-.6a9.279,9.279,0,1,0-9.441,9.386Zm-.274-14.82a5.591,5.591,0,1,1-5.1,5.1A5.534,5.534,0,0,1,73.606,23.142ZM15.7,19.465a9.057,9.057,0,0,0-5.489,1.7.414.414,0,0,1-.439.055c-.6-.329-2.305-1.208-3.129-1.647a.3.3,0,0,0-.439.274l.055,8.4v.6A9.279,9.279,0,1,0,15.7,19.465Zm.274,14.82a5.591,5.591,0,1,1,5.1-5.1A5.534,5.534,0,0,1,15.971,34.285Z" transform="translate(-5.432 -11.012)" fill="#b4b4b4"/>
	    <path id="Path_3384" data-name="Path 3384" d="M6.2,4.749v5.818a.489.489,0,0,0,.274.439l3.458,1.811V4.749A.55.55,0,0,0,9.384,4.2H6.8A.564.564,0,0,0,6.2,4.749ZM112.523,25.772l.439.494c.055.11.165.11.274.11a.3.3,0,0,0,.274-.165l.329-.549a43.7,43.7,0,0,1,16.632-15.644.054.054,0,0,0,.055-.055v-.11L129.869,8.7a.2.2,0,0,0-.165-.055l-.494.274a45.287,45.287,0,0,0-15.918,14.656.758.758,0,0,1-.22.165c-.11,0-.165-.055-.274-.11a39.857,39.857,0,0,0-6.752-5.764h-.055c-.055,0-.055,0-.11.055l-.768,1.1a.105.105,0,0,0,.055.165,37.39,37.39,0,0,1,7.355,6.587Z" transform="translate(-5.432 -4.2)" fill="#b4b4b4"/>
	    <path id="Path_3385" data-name="Path 3385" d="M190.172,19.982a24.318,24.318,0,0,1,4.446,3.733l.384.439a.419.419,0,0,0,.274.11c.11,0,.165-.055.274-.11l.329-.494a46.05,46.05,0,0,1,14.6-13.174c.384-.22.714-.439,1.043-.6a.264.264,0,0,0,.11-.329l-.6-1.043c0-.055-.055-.055-.11-.11h-.165c-6.916,4.062-11.362,7.9-15.369,13.174a.416.416,0,0,1-.22.11c-.11,0-.22,0-.274-.11a39.6,39.6,0,0,0-4.556-3.513l-.11-.055-.494-.329a.136.136,0,0,0-.22.055l-.439.6c-.055.055-.055.11-.11.165-.055.11-.11.165-.165.274v.11c0,.055,0,.055.055.11l1.317.988Z" transform="translate(-87.801 -6.095)" fill="#b4b4b4"/>
	    <path id="Path_3386" data-name="Path 3386" d="M193.87,36.356l.384-.878c3.239-7.3,9-13.229,17.565-18.169.11-.055.11-.165.055-.274l-.055-.055c-.22-.329-.384-.714-.6-1.043-.055-.055-.11-.11-.165-.055l-.11.055c-8.124,4.721-13.778,10.265-17.291,17.071a.548.548,0,0,1-.274.22.475.475,0,0,1-.329-.165,40.662,40.662,0,0,0-8.343-8.069h-.055c-.055,0-.055,0-.11.055l-.768,1.1a.136.136,0,0,0,.055.22,34.624,34.624,0,0,1,9,9.277l.494.823a.3.3,0,0,0,.274.165.662.662,0,0,0,.274-.274Z" transform="translate(-85.516 -9.459)" fill="#b4b4b4"/>
	    <path id="Path_3387" data-name="Path 3387" d="M196.211,16.347a.371.371,0,0,1-.549.055c-1.262-.933-2.854-1.976-3.513-2.415-.055,0-.055-.055-.11,0-.055,0-.055.055-.11.055l-.659,1.043c-.055.11-.055.22.055.274.933.6,3.019,2.031,4.281,3.019l.274.22a.78.78,0,0,0,.329.11.3.3,0,0,0,.274-.165l.22-.329A49.154,49.154,0,0,1,211.36,6.027a.264.264,0,0,0,.11-.329l-.549-.988c-.055-.055-.11-.11-.165-.11h-.165A54.37,54.37,0,0,0,196.211,16.347Z" transform="translate(-88.899 -4.38)" fill="#b4b4b4"/>
	  </g>
	</svg>