<svg xmlns="http://www.w3.org/2000/svg" viewBox="0 0 20.264 24">
  <g id="noun_bookmark_3423941" transform="translate(2.1 24.72)">
    <path id="Path_3325" data-name="Path 3325" d="M23.693,2.28H10.372A3.476,3.476,0,0,0,6.9,5.752v7.226a.807.807,0,0,0,.807.807h4.521V25.467a.807.807,0,0,0,1.171.727l6.3-3.036,6.309,3.028a.807.807,0,0,0,1.159-.727V5.752A3.476,3.476,0,0,0,23.693,2.28Zm1.857,21.9-5.5-2.64a.807.807,0,0,0-.7,0l-5.5,2.64V5.473a2.017,2.017,0,0,0-.04-.218V5.223A1.034,1.034,0,0,0,13.762,5c-.016-.073-.028-.117-.044-.178a.807.807,0,0,0-.032-.1,2.72,2.72,0,0,0-.117-.319,1.213,1.213,0,0,0-.065-.145c-.024-.057-.052-.109-.081-.161s-.077-.133-.117-.2H23.693A1.857,1.857,0,0,1,25.55,5.752Z" transform="translate(-9 -27)" fill="#0b154b"/>
  </g>
</svg>