<svg xmlns="http://www.w3.org/2000/svg" width="71.982" height="55.998" viewBox="0 0 71.982 55.998">
  <g id="Group_69590" data-name="Group 69590" transform="translate(-521.252 -38656.766)">
    <g id="Group_69570" data-name="Group 69570" transform="translate(521.252 38663.164)">
      <g id="Group_69569" data-name="Group 69569" transform="translate(0)">
        <path id="Path_3995" data-name="Path 3995" d="M283.955,368.673h-4.8c-.084,0-.167,0-.251,0a2.487,2.487,0,0,0-2.149,2.4v39.989a2.5,2.5,0,0,0,2.4,2.4h24.793c3.479,0,5.46,1.1,6.649,3.474a2.4,2.4,0,0,0,4.3,0c1.19-2.378,3.171-3.474,6.649-3.474H346.34a2.494,2.494,0,0,0,2.4-2.4V371.073a2.494,2.494,0,0,0-2.4-2.4H283.955Z" transform="translate(-276.756 -368.671)" fill="#319b6d"/>
      </g>
    </g>
    <g id="Group_69572" data-name="Group 69572" transform="translate(528.451 38656.766)">
      <g id="Group_69571" data-name="Group 69571" transform="translate(0)">
        <path id="Path_3996" data-name="Path 3996" d="M310.08,368.719a11.65,11.65,0,0,0-8.8-4.074h-17.6c-.083,0-.167,0-.249,0a2.486,2.486,0,0,0-2.149,2.4v39.19a2.492,2.492,0,0,0,2.4,2.4h14.4a8.874,8.874,0,0,1,6.675,2.824,29.713,29.713,0,0,1,3.174,7.849,2.451,2.451,0,0,0,2.149,1.333" transform="translate(-281.288 -364.643)" fill="#54c997"/>
      </g>
    </g>
    <g id="Group_69574" data-name="Group 69574" transform="translate(557.244 38656.77)">
      <g id="Group_69573" data-name="Group 69573" transform="translate(0)">
        <path id="Path_3997" data-name="Path 3997" d="M299.414,420.639a2.451,2.451,0,0,0,2.149-1.333c.912-3.41,1.914-6.324,3.175-7.849a8.87,8.87,0,0,1,6.673-2.824h14.4a2.492,2.492,0,0,0,2.4-2.4v-39.19a2.493,2.493,0,0,0-2.4-2.4h-17.6a11.65,11.65,0,0,0-8.8,4.074" transform="translate(-299.414 -364.644)" fill="#92ddbd"/>
      </g>
    </g>
  </g>
</svg>