<svg xmlns="http://www.w3.org/2000/svg" width="71.982" height="55.998" viewBox="0 0 71.982 55.998">
  <g id="Group_69588" data-name="Group 69588" transform="translate(-414.842 -38656.766)">
    <g id="Group_69564" data-name="Group 69564" transform="translate(414.842 38663.164)">
      <g id="Group_69563" data-name="Group 69563">
        <path id="Path_3992" data-name="Path 3992" d="M216.965,368.673h-4.8c-.084,0-.167,0-.251,0a2.487,2.487,0,0,0-2.149,2.4v39.989a2.5,2.5,0,0,0,2.4,2.4H236.96c3.479,0,5.46,1.1,6.648,3.474a2.4,2.4,0,0,0,4.3,0c1.19-2.378,3.171-3.474,6.649-3.474H279.35a2.493,2.493,0,0,0,2.4-2.4V371.073a2.493,2.493,0,0,0-2.4-2.4H216.965Z" transform="translate(-209.766 -368.671)" fill="#dda303"/>
      </g>
    </g>
    <g id="Group_69588-2" data-name="Group 69588">
      <g id="Group_69566" data-name="Group 69566" transform="translate(422.041 38656.766)">
        <g id="Group_69565" data-name="Group 69565">
          <path id="Path_3993" data-name="Path 3993" d="M243.09,368.719a11.647,11.647,0,0,0-8.8-4.074H216.7c-.083,0-.167,0-.249,0a2.486,2.486,0,0,0-2.149,2.4v39.19a2.492,2.492,0,0,0,2.4,2.4h14.4a8.874,8.874,0,0,1,6.675,2.824,29.716,29.716,0,0,1,3.174,7.849,2.451,2.451,0,0,0,2.149,1.333" transform="translate(-214.298 -364.643)" fill="#f2d415"/>
        </g>
      </g>
      <g id="Group_69567" data-name="Group 69567" transform="translate(450.834 38656.77)">
        <path id="Path_3994" data-name="Path 3994" d="M232.424,420.639a2.451,2.451,0,0,0,2.149-1.333c.912-3.41,1.914-6.324,3.175-7.849a8.87,8.87,0,0,1,6.673-2.824h14.4a2.493,2.493,0,0,0,2.4-2.4v-39.19a2.5,2.5,0,0,0-2.4-2.4h-17.6a11.65,11.65,0,0,0-8.8,4.074" transform="translate(-232.424 -364.644)" fill="#ffea6d"/>
      </g>
    </g>
  </g>
</svg>