<svg xmlns="http://www.w3.org/2000/svg" width="71.982" height="55.998" viewBox="0 0 71.982 55.998">
  <g id="Group_69589" data-name="Group 69589" transform="translate(-624.787 -38656.766)">
    <g id="Group_69576" data-name="Group 69576" transform="translate(624.787 38663.164)">
      <g id="Group_69575" data-name="Group 69575" transform="translate(0)">
        <path id="Path_3998" data-name="Path 3998" d="M349.133,368.673h-4.8c-.083,0-.167,0-.249,0a2.487,2.487,0,0,0-2.149,2.4v39.989a2.493,2.493,0,0,0,2.4,2.4h24.794c3.479,0,5.459,1.1,6.648,3.474a2.4,2.4,0,0,0,4.3,0c1.188-2.378,3.169-3.474,6.648-3.474h24.794a2.5,2.5,0,0,0,2.4-2.4V371.073a2.5,2.5,0,0,0-2.4-2.4H349.133Z" transform="translate(-341.936 -368.671)" fill="#ea132c"/>
      </g>
    </g>
    <g id="Group_69578" data-name="Group 69578" transform="translate(631.984 38656.766)">
      <g id="Group_69577" data-name="Group 69577">
        <path id="Path_3999" data-name="Path 3999" d="M375.261,368.719a11.65,11.65,0,0,0-8.8-4.074h-17.6c-.084,0-.167,0-.251,0a2.485,2.485,0,0,0-2.149,2.4v39.19a2.493,2.493,0,0,0,2.4,2.4h14.4a8.873,8.873,0,0,1,6.673,2.824,29.663,29.663,0,0,1,3.174,7.849,2.456,2.456,0,0,0,2.151,1.333" transform="translate(-346.467 -364.643)" fill="#f36979"/>
      </g>
    </g>
    <g id="Group_69580" data-name="Group 69580" transform="translate(660.779 38656.77)">
      <g id="Group_69579" data-name="Group 69579">
        <path id="Path_4000" data-name="Path 4000" d="M364.594,420.639a2.453,2.453,0,0,0,2.149-1.333c.91-3.41,1.914-6.324,3.174-7.849a8.873,8.873,0,0,1,6.673-2.824h14.4a2.493,2.493,0,0,0,2.4-2.4v-39.19a2.494,2.494,0,0,0-2.4-2.4h-17.6a11.647,11.647,0,0,0-8.8,4.074" transform="translate(-364.594 -364.644)" fill="#f79ba6"/>
      </g>
    </g>
  </g>
</svg>