<svg xmlns="http://www.w3.org/2000/svg" width="72" height="56" viewBox="0 0 72 56">
  <g id="Group_69587" data-name="Group 69587" transform="translate(-311 -38656.766)">
    <g id="Group_69558" data-name="Group 69558" transform="translate(311 38663.168)">
      <g id="Group_69557" data-name="Group 69557">
        <path id="Path_3989" data-name="Path 3989" d="M151.592,368.673h-4.8c-.083,0-.167,0-.249,0a2.487,2.487,0,0,0-2.15,2.4v39.986a2.493,2.493,0,0,0,2.4,2.4h24.8c3.48,0,5.461,1.1,6.651,3.474a2.4,2.4,0,0,0,4.3,0c1.19-2.378,3.171-3.474,6.651-3.474h24.8a2.5,2.5,0,0,0,2.4-2.4V371.073a2.5,2.5,0,0,0-2.4-2.4h-62.4Z" transform="translate(-144.393 -368.671)" fill="#0b154b"/>
      </g>
    </g>
    <g id="Group_69560" data-name="Group 69560" transform="translate(318.203 38656.766)">
      <g id="Group_69559" data-name="Group 69559">
        <path id="Path_3990" data-name="Path 3990" d="M177.741,368.719a11.663,11.663,0,0,0-8.805-4.075H151.326c-.083,0-.167,0-.25,0a2.488,2.488,0,0,0-2.152,2.4v39.191a2.5,2.5,0,0,0,2.4,2.4h14.408a8.88,8.88,0,0,1,6.678,2.824,29.7,29.7,0,0,1,3.178,7.849,2.454,2.454,0,0,0,2.151,1.333" transform="translate(-148.924 -364.642)" fill="#227cc2"/>
      </g>
    </g>
    <g id="Group_69562" data-name="Group 69562" transform="translate(346.981 38656.77)">
      <g id="Group_69561" data-name="Group 69561">
        <path id="Path_3991" data-name="Path 3991" d="M167.051,420.64a2.454,2.454,0,0,0,2.151-1.333c.911-3.41,1.916-6.324,3.176-7.849a8.884,8.884,0,0,1,6.68-2.824h14.407a2.493,2.493,0,0,0,2.4-2.4V367.044a2.494,2.494,0,0,0-2.4-2.4H175.856a11.663,11.663,0,0,0-8.805,4.074" transform="translate(-167.051 -364.644)" fill="#57c0eb"/>
      </g>
    </g>
  </g>
</svg>
