<svg id="Layer_1" data-name="Layer 1" xmlns="http://www.w3.org/2000/svg" viewBox="0 0 45.46 48.13"><path d="M14.46,37.52,7.81,44.19,10,46.34a6.1,6.1,0,0,0,8.59,0C18.78,42.71,19.54,38.72,14.46,37.52Z" transform="translate(0.03 0)" style="fill:#0059b1"/><path d="M33,32.37l-14,14a6,6,0,0,1-4.28,1.76l.06-.12a4.66,4.66,0,0,0,3.68-4.56A4.55,4.55,0,0,0,17,40.08a.29.29,0,0,0-.12-.15l-2.13-2.16L1.78,24.87a6.09,6.09,0,0,1,0-8.6l14-14a6.09,6.09,0,0,1,8.6,0l2.16,2.16L20,10.89l2.73,2.7L33,23.77A6.09,6.09,0,0,1,33,32.37Z" transform="translate(0.03 0)" style="fill:#09f"/><path d="M.71,18.4c.72-1.4,4.66-2.86,7.52,0l2.15,2.15L17.9,13l2.15-2.15L26.49,4.4,24.35,2.29a6.11,6.11,0,0,0-8.6,0l-14,14a6.08,6.08,0,0,0,0,8.59A5.53,5.53,0,0,1,.71,18.4Z" transform="translate(0.03 0)" style="fill:#57daff"/><path d="M20.5,15.75,18.65,17.6A2.18,2.18,0,0,0,18,19.14v5.72A2.18,2.18,0,0,1,17.68,26L15,30.39l4.37-2.7a2.23,2.23,0,0,1,1.15-.33h5.76a2.13,2.13,0,0,0,1.49-.61l1.88-1.88,2.15-2.15,13-12.95a2.2,2.2,0,0,0,.63-1.53V2.17A2.17,2.17,0,0,0,43.26,0H37.18A2.18,2.18,0,0,0,35.6.64l-13,13ZM42.32,7a2.13,2.13,0,0,1-.63,1.51L25.86,24.32H22.91L38.52,6.85,21.05,22.44V19.5L36.87,3.67A2.12,2.12,0,0,1,38.39,3H41a1.32,1.32,0,0,1,1.32,1.31Z" transform="translate(0.03 0)" style="fill:#005eb1"/></svg>