<svg xmlns="http://www.w3.org/2000/svg" width="24" height="24.075" viewBox="0 0 24 24.075">
					  <path id="Path_170" data-name="Path 170" d="M1302.163,306.775v-8.652H1299.3v-3.762h2.859v-1.881a4.954,4.954,0,0,1,4.89-5.191h2.633V291.5h-2.407a.751.751,0,0,0-.828.828v1.956h3.16v3.762h-3.16V306.7h3.461a4.014,4.014,0,0,0,3.987-3.987V286.687a4.014,4.014,0,0,0-3.987-3.987h-16.025a4.014,4.014,0,0,0-3.987,3.987v16.025a4.014,4.014,0,0,0,3.987,3.987Z" transform="translate(-1289.9 -282.7)" fill="#00cad9"/>
					</svg>