<svg xmlns="http://www.w3.org/2000/svg" viewBox="0 0 25.441 24">
  <g id="noun_Category_2831378" transform="translate(-0.396 -42.975)">
    <g id="Group_68473" data-name="Group 68473" transform="translate(0.396 42.975)">
      <g id="Group_68470" data-name="Group 68470" transform="translate(0 0)">
        <g id="Group_68469" data-name="Group 68469">
          <path id="Path_3319" data-name="Path 3319" d="M37.822,64.414H17.576a1.307,1.307,0,0,1-.2-.013l.34.046a1.43,1.43,0,0,1-.33-.09l.3.128a1.554,1.554,0,0,1-.289-.169l.258.2a1.463,1.463,0,0,1-.235-.235l.2.258a1.315,1.315,0,0,1-.169-.289c.044.1.087.2.128.3a1.373,1.373,0,0,1-.09-.33l.046.34a5.457,5.457,0,0,1-.013-.647V45.586a1.742,1.742,0,0,1,.013-.2l-.046.34a1.43,1.43,0,0,1,.09-.33c-.043.1-.087.2-.128.3a1.553,1.553,0,0,1,.169-.289l-.2.258a1.463,1.463,0,0,1,.235-.235l-.258.2a1.314,1.314,0,0,1,.289-.169l-.3.128a1.374,1.374,0,0,1,.33-.09l-.34.046a6.727,6.727,0,0,1,.819-.013h5.417a7.546,7.546,0,0,1,.962.01l-.34-.046a1.191,1.191,0,0,1,.248.069l-.3-.128a1.286,1.286,0,0,1,.223.128l-.258-.2a1.22,1.22,0,0,1,.184.179l-.2-.258c.223.289.4.622.594.929l1.116,1.768c.3.476.6.952.9,1.428l.1.159c.008.01.013.02.02.031a1.344,1.344,0,0,0,1.108.64c.054,0,.107,0,.164,0H35.35c.816,0,1.633,0,2.449,0a1.307,1.307,0,0,1,.2.013l-.34-.046a1.429,1.429,0,0,1,.33.09l-.3-.128a1.553,1.553,0,0,1,.289.169l-.258-.2a1.463,1.463,0,0,1,.235.235l-.2-.258a1.314,1.314,0,0,1,.169.289c-.043-.1-.087-.2-.128-.3a1.373,1.373,0,0,1,.09.33l-.046-.34a4.432,4.432,0,0,1,.013.522V62.7c0,.56.005,1.121,0,1.681a1.611,1.611,0,0,1-.013.192l.046-.34a1.43,1.43,0,0,1-.09.33c.043-.1.087-.2.128-.3a1.554,1.554,0,0,1-.169.289l.2-.258a1.463,1.463,0,0,1-.235.235l.258-.2a1.315,1.315,0,0,1-.289.169l.3-.128a1.374,1.374,0,0,1-.33.09l.34-.046q-.084.008-.177.008a1.344,1.344,0,0,0-.906.374,1.285,1.285,0,0,0,0,1.812,1.316,1.316,0,0,0,.906.374,2.569,2.569,0,0,0,1.94-.883,2.676,2.676,0,0,0,.568-1.067,3.021,3.021,0,0,0,.079-.642c0-.133,0-.269,0-.4V51.387a9.859,9.859,0,0,0-.064-1.671,2.545,2.545,0,0,0-1.233-1.689,2.682,2.682,0,0,0-1.313-.345H27.968l1.105.635q-.714-1.132-1.43-2.265c-.307-.489-.617-.975-.924-1.464l-.266-.42a2.684,2.684,0,0,0-.819-.852,2.8,2.8,0,0,0-1.6-.34H17.714c-.074,0-.151,0-.225,0a2.673,2.673,0,0,0-1.233.351,2.742,2.742,0,0,0-.873.842,3.47,3.47,0,0,0-.409,2.106V64.265a2.641,2.641,0,0,0,.407,1.512,2.744,2.744,0,0,0,.888.852,2.683,2.683,0,0,0,1.218.343c.041,0,.084,0,.125,0H37.824a1.332,1.332,0,0,0,.906-.374,1.285,1.285,0,0,0,0-1.812A1.341,1.341,0,0,0,37.822,64.414Z" transform="translate(-14.973 -42.975)" fill="#0b154b"/>
        </g>
      </g>
      <g id="Group_68472" data-name="Group 68472" transform="translate(0 4.71)">
        <g id="Group_68471" data-name="Group 68471">
          <path id="Path_3320" data-name="Path 3320" d="M37.8,243.529H17.559a1.309,1.309,0,0,1-.2-.013l.34.046a1.429,1.429,0,0,1-.33-.09l.3.128a1.554,1.554,0,0,1-.289-.169l.258.2a1.463,1.463,0,0,1-.235-.235l.2.258a1.314,1.314,0,0,1-.169-.289c.044.1.087.2.128.3a1.372,1.372,0,0,1-.09-.33l.046.34a4.429,4.429,0,0,1-.013-.522V231.082c0-.56-.005-1.12,0-1.681a1.61,1.61,0,0,1,.013-.192l-.046.34a1.428,1.428,0,0,1,.09-.33c-.044.1-.087.2-.128.3a1.553,1.553,0,0,1,.169-.289l-.2.258a1.463,1.463,0,0,1,.235-.235l-.258.2a1.314,1.314,0,0,1,.289-.169l-.3.128a1.374,1.374,0,0,1,.33-.09l-.34.046a5.541,5.541,0,0,1,.683-.013H37.779a1.307,1.307,0,0,1,.2.013l-.34-.046a1.431,1.431,0,0,1,.33.09l-.3-.128a1.555,1.555,0,0,1,.289.169l-.258-.2a1.463,1.463,0,0,1,.235.235l-.2-.258a1.314,1.314,0,0,1,.169.289c-.043-.1-.087-.2-.128-.3a1.372,1.372,0,0,1,.09.33l-.046-.34a4.43,4.43,0,0,1,.013.522v12.076c0,.56.005,1.12,0,1.681a1.611,1.611,0,0,1-.013.192l.046-.34a1.429,1.429,0,0,1-.09.33c.044-.1.087-.2.128-.3a1.552,1.552,0,0,1-.169.289l.2-.258a1.464,1.464,0,0,1-.235.235l.258-.2a1.316,1.316,0,0,1-.289.169l.3-.128a1.373,1.373,0,0,1-.33.09l.34-.046a.944.944,0,0,1-.174.013,1.344,1.344,0,0,0-.906.373,1.284,1.284,0,0,0,0,1.811,1.316,1.316,0,0,0,.906.373,2.494,2.494,0,0,0,.752-.113,2.6,2.6,0,0,0,.665-.315,2.957,2.957,0,0,0,.732-.729,2.6,2.6,0,0,0,.32-.663,2.634,2.634,0,0,0,.118-.859V229.386a2.6,2.6,0,0,0-.379-1.348,2.544,2.544,0,0,0-.476-.57,2.972,2.972,0,0,0-.88-.519,3.121,3.121,0,0,0-1.169-.148H17.649c-.059,0-.12,0-.179,0a2.452,2.452,0,0,0-.745.133,2.966,2.966,0,0,0-.885.512,2.575,2.575,0,0,0-.476.55,2.434,2.434,0,0,0-.31.686,4.345,4.345,0,0,0-.1,1.2v12.987c0,.21,0,.42,0,.629a2.567,2.567,0,0,0,.417,1.4,2.608,2.608,0,0,0,.6.634,2.686,2.686,0,0,0,.773.417,2.461,2.461,0,0,0,.862.13h20.2a1.332,1.332,0,0,0,.906-.373,1.284,1.284,0,0,0,0-1.811A1.352,1.352,0,0,0,37.8,243.529Z" transform="translate(-14.956 -226.8)" fill="#0b154b"/>
        </g>
      </g>
    </g>
  </g>
</svg>