<svg xmlns="http://www.w3.org/2000/svg" xmlns:xlink="http://www.w3.org/1999/xlink" width="52.893" height="56" viewBox="0 0 52.893 56">
  <defs>
    <clipPath id="clip-path">
      <rect id="Rectangle_508" data-name="Rectangle 508" width="52.893" height="56" fill="none"/>
    </clipPath>
    <clipPath id="clip-path-2">
      <rect id="Rectangle_560" data-name="Rectangle 560" width="33.861" height="33.861" fill="#005eb1"/>
    </clipPath>
  </defs>
  <g id="Group_69226" data-name="Group 69226" transform="translate(-1026 -634)">
    <g id="Group_68094" data-name="Group 68094" transform="translate(1026 634)">
      <g id="Group_68093" data-name="Group 68093" transform="translate(0 0)" clip-path="url(#clip-path)">
        <path id="Path_1776" data-name="Path 1776" d="M10.052,12.35,2.571,19.841l2.421,2.414a6.858,6.858,0,0,0,9.669,0c.256-4.074,1.108-8.564-4.609-9.906" transform="translate(6.219 31.75)" fill="#ea132c"/>
        <path id="Path_1777" data-name="Path 1777" d="M37.08,35.971,21.352,51.678a6.783,6.783,0,0,1-4.821,1.98l.068-.137A5.241,5.241,0,0,0,20.737,48.4a5.111,5.111,0,0,0-1.675-3.794.373.373,0,0,0-.137-.171l-2.393-2.421-9.32-9.286L2,27.537a6.836,6.836,0,0,1,0-9.663L17.728,2.167a6.858,6.858,0,0,1,9.676,0l2.428,2.424-7.283,7.239,3.077,3.039L37.08,26.308a6.836,6.836,0,0,1,0,9.663" transform="translate(0 2.341)" fill="#f36979"/>
        <path id="Path_1778" data-name="Path 1778" d="M.79,20.262c.807-1.571,5.241-3.21,8.466.01l2.417,2.417,8.462-8.451,2.417-2.414L29.8,4.579,27.387,2.165a6.859,6.859,0,0,0-9.669,0L2,17.858a6.831,6.831,0,0,0,0,9.66A6.224,6.224,0,0,1,.79,20.262" transform="translate(0.01 2.344)" fill="#f79ba6"/>
      </g>
      <path id="Path_1905" data-name="Path 1905" d="M6.232,17.757,3.858,20.135a1.493,1.493,0,0,0-.432,1.045v7.133a1.482,1.482,0,0,1-.219.778L0,34.271l5.167-3.193a1.474,1.474,0,0,1,.774-.223l7.15-.007a1.475,1.475,0,0,0,1.045-.435l2.378-2.378,2.426-2.422,14.886-14.89a1.483,1.483,0,0,0,.435-1.048V1.484A1.482,1.482,0,0,0,32.777,0H24.6a1.483,1.483,0,0,0-1.048.435L8.654,15.335Zm24.6-9.5A1.483,1.483,0,0,1,30.4,9.305L12.283,27.419l-3.327.007,17.6-19.707L6.852,25.312V21.985L24.966,3.861a1.489,1.489,0,0,1,1.048-.435h3.337A1.482,1.482,0,0,1,30.835,4.91Z" transform="translate(16.692 1.914)" fill="#ea132c"/>
    </g>
  </g>
</svg>
