<svg xmlns="http://www.w3.org/2000/svg" xmlns:xlink="http://www.w3.org/1999/xlink" width="52.892" height="56" viewBox="0 0 52.892 56">
  <defs>
    <clipPath id="clip-path">
      <rect id="Rectangle_508" data-name="Rectangle 508" width="52.892" height="56" fill="none"/>
    </clipPath>
    <clipPath id="clip-path-2">
      <rect id="Rectangle_560" data-name="Rectangle 560" width="33.056" height="33.056" fill="#005eb1"/>
    </clipPath>
  </defs>
  <g id="Group_69224" data-name="Group 69224" transform="translate(515.672 -14047.667)">
    <g id="Group_68453" data-name="Group 68453" transform="translate(-515.672 14047.667)">
      <g id="Group_68449" data-name="Group 68449" transform="translate(0 0)">
        <g id="Group_68094" data-name="Group 68094" transform="translate(0 0)">
          <g id="Group_68093" data-name="Group 68093" clip-path="url(#clip-path)">
            <path id="Path_1776" data-name="Path 1776" d="M10.052,12.35,2.571,19.841l2.421,2.414a6.858,6.858,0,0,0,9.669,0c.256-4.074,1.108-8.564-4.609-9.905" transform="translate(6.219 31.75)" fill="#222b49"/>
            <path id="Path_1777" data-name="Path 1777" d="M37.08,35.971,21.352,51.678a6.783,6.783,0,0,1-4.821,1.98l.068-.137A5.24,5.24,0,0,0,20.737,48.4a5.111,5.111,0,0,0-1.675-3.794.373.373,0,0,0-.137-.171l-2.393-2.421L2,27.537a6.836,6.836,0,0,1,0-9.663L17.728,2.167a6.858,6.858,0,0,1,9.676,0l2.428,2.424-7.283,7.239,3.077,3.039L37.08,26.308a6.836,6.836,0,0,1,0,9.663" transform="translate(0 2.341)" fill="#626986"/>
            <path id="Path_1778" data-name="Path 1778" d="M.79,20.262c.807-1.571,5.241-3.21,8.466.01l2.417,2.417,8.462-8.451,2.417-2.414L29.8,4.579,27.387,2.165a6.859,6.859,0,0,0-9.669,0L2,17.858a6.831,6.831,0,0,0,0,9.66A6.224,6.224,0,0,1,.79,20.262" transform="translate(0.01 2.344)" fill="#a1a5b2"/>
          </g>
          <path id="Path_1905" data-name="Path 1905" d="M6.2,17.655,3.836,20.019a1.484,1.484,0,0,0-.429,1.039V28.15a1.474,1.474,0,0,1-.218.773L0,34.073,5.137,30.9a1.465,1.465,0,0,1,.77-.221l7.109-.007a1.467,1.467,0,0,0,1.039-.433l2.364-2.364,2.412-2.408,14.8-14.8a1.475,1.475,0,0,0,.433-1.042V1.475A1.473,1.473,0,0,0,32.588,0H24.454a1.475,1.475,0,0,0-1.042.433L8.6,15.247ZM30.657,8.209a1.475,1.475,0,0,1-.433,1.042L12.212,27.261,8.9,27.268,26.4,7.674,6.813,25.166V21.858L24.822,3.839a1.481,1.481,0,0,1,1.042-.433h3.318a1.473,1.473,0,0,1,1.475,1.475Z" transform="translate(16.901 1.903)" fill="#222b49"/>
        </g>
      </g>
    </g>
  </g>
</svg>
