<svg xmlns="http://www.w3.org/2000/svg" xmlns:xlink="http://www.w3.org/1999/xlink" width="52.893" height="56" viewBox="0 0 52.893 56">
  <defs>
    <clipPath id="clip-path">
      <rect id="Rectangle_508" data-name="Rectangle 508" width="52.893" height="56" fill="none"/>
    </clipPath>
    <clipPath id="clip-path-2">
      <rect id="Rectangle_560" data-name="Rectangle 560" width="32.804" height="34.792" fill="#005eb1"/>
    </clipPath>
  </defs>
  <g id="Group_69225" data-name="Group 69225" transform="translate(-1026 -634)">
    <g id="Group_68094" data-name="Group 68094" transform="translate(1026 634)">
      <g id="Group_68093" data-name="Group 68093" transform="translate(0 0)" clip-path="url(#clip-path)">
        <path id="Path_1776" data-name="Path 1776" d="M10.052,12.35,2.571,19.841l2.421,2.414a6.858,6.858,0,0,0,9.669,0c.256-4.074,1.108-8.564-4.609-9.906" transform="translate(6.219 31.75)" fill="#0b154b"/>
        <path id="Path_1777" data-name="Path 1777" d="M37.08,35.971,21.352,51.678a6.783,6.783,0,0,1-4.821,1.98l.068-.137A5.241,5.241,0,0,0,20.737,48.4a5.111,5.111,0,0,0-1.675-3.794.373.373,0,0,0-.137-.171l-2.393-2.421L2,27.537a6.836,6.836,0,0,1,0-9.663L17.728,2.167a6.858,6.858,0,0,1,9.676,0l2.428,2.424-7.283,7.239,3.077,3.039L37.08,26.308a6.836,6.836,0,0,1,0,9.663" transform="translate(0 2.341)" fill="#227cc2"/>
        <path id="Path_1778" data-name="Path 1778" d="M.79,20.262c.807-1.571,5.241-3.21,8.466.01l2.417,2.417,8.462-8.451,2.417-2.414L29.8,4.579,27.387,2.165a6.859,6.859,0,0,0-9.669,0L2,17.858a6.831,6.831,0,0,0,0,9.66A6.224,6.224,0,0,1,.79,20.262" transform="translate(0.01 2.344)" fill="#57c0eb"/>
      </g>
      <path id="Path_1905" data-name="Path 1905" d="M6.244,17.79,3.865,20.173a1.5,1.5,0,0,0-.432,1.047v7.146a1.485,1.485,0,0,1-.22.779L0,34.335l5.176-3.2a1.477,1.477,0,0,1,.776-.223l7.164-.007a1.478,1.478,0,0,0,1.047-.436l2.382-2.382,2.43-2.427L33.889,10.744a1.486,1.486,0,0,0,.436-1.05V1.486A1.485,1.485,0,0,0,32.838,0h-8.2a1.486,1.486,0,0,0-1.05.436L8.67,15.364ZM30.892,8.272a1.486,1.486,0,0,1-.436,1.05L12.305,27.47l-3.333.007L26.6,7.733,6.865,25.359V22.026L25.012,3.868a1.492,1.492,0,0,1,1.05-.436h3.343a1.485,1.485,0,0,1,1.486,1.486Z" transform="translate(16.625 1.918)" fill="#0b154b"/>
    </g>
  </g>
</svg>
