<svg xmlns="http://www.w3.org/2000/svg" xmlns:xlink="http://www.w3.org/1999/xlink" width="52.892" height="56" viewBox="0 0 52.892 56">
  <defs>
    <clipPath id="clip-path">
      <rect id="Rectangle_508" data-name="Rectangle 508" width="52.892" height="56" fill="none"/>
    </clipPath>
    <clipPath id="clip-path-2">
      <rect id="Rectangle_560" data-name="Rectangle 560" width="33.525" height="33.525" fill="#005eb1"/>
    </clipPath>
  </defs>
  <g id="Group_69227" data-name="Group 69227" transform="translate(-1026 -634)">
    <g id="Group_68094" data-name="Group 68094" transform="translate(1026 634)">
      <g id="Group_68093" data-name="Group 68093" clip-path="url(#clip-path)">
        <path id="Path_1776" data-name="Path 1776" d="M10.052,12.35,2.571,19.841l2.421,2.414a6.858,6.858,0,0,0,9.669,0c.256-4.074,1.108-8.564-4.609-9.906" transform="translate(6.219 31.75)" fill="#dda303"/>
        <path id="Path_1777" data-name="Path 1777" d="M37.08,35.971,21.352,51.678a6.783,6.783,0,0,1-4.821,1.98l.068-.137A5.241,5.241,0,0,0,20.737,48.4a5.111,5.111,0,0,0-1.675-3.794.373.373,0,0,0-.137-.171l-2.393-2.421L2,27.537a6.836,6.836,0,0,1,0-9.663L17.728,2.167a6.858,6.858,0,0,1,9.676,0l2.428,2.424-7.283,7.239,3.077,3.039L37.08,26.308a6.836,6.836,0,0,1,0,9.663" transform="translate(0 2.341)" fill="#f2d415"/>
        <path id="Path_1778" data-name="Path 1778" d="M.79,20.262c.807-1.571,5.241-3.21,8.466.01l2.417,2.417,8.462-8.451,2.417-2.414L29.8,4.579,27.387,2.165a6.859,6.859,0,0,0-9.669,0L2,17.858a6.831,6.831,0,0,0,0,9.66A6.224,6.224,0,0,1,.79,20.262" transform="translate(0.01 2.344)" fill="#ffea6d"/>
      </g>
      <path id="Path_1905" data-name="Path 1905" d="M6.109,17.408,3.782,19.739a1.463,1.463,0,0,0-.423,1.024v6.993a1.453,1.453,0,0,1-.215.762L0,33.6l5.065-3.13a1.445,1.445,0,0,1,.759-.218l7.01-.007a1.446,1.446,0,0,0,1.024-.427l2.331-2.331,2.378-2.375,14.594-14.6a1.454,1.454,0,0,0,.427-1.028V1.454A1.453,1.453,0,0,0,32.133,0H24.112a1.454,1.454,0,0,0-1.028.427L8.484,15.034ZM30.228,8.094A1.454,1.454,0,0,1,29.8,9.122L12.041,26.88l-3.261.007L26.03,7.567,6.717,24.814V21.553L24.475,3.785A1.46,1.46,0,0,1,25.5,3.359h3.271a1.453,1.453,0,0,1,1.454,1.454Z" transform="translate(17.404 1.877)" fill="#dda303"/>
    </g>
  </g>
</svg>
