<svg xmlns="http://www.w3.org/2000/svg" xmlns:xlink="http://www.w3.org/1999/xlink" width="52.893" height="56" viewBox="0 0 52.893 56">
  <defs>
    <clipPath id="clip-path">
      <rect id="Rectangle_508" data-name="Rectangle 508" width="52.893" height="56" fill="none"/>
    </clipPath>
    <clipPath id="clip-path-2">
      <rect id="Rectangle_560" data-name="Rectangle 560" width="33.992" height="33.992" fill="#005eb1"/>
    </clipPath>
  </defs>
  <g id="Group_69223" data-name="Group 69223" transform="translate(-1026 -634)">
    <g id="Group_68094" data-name="Group 68094" transform="translate(1026 634)">
      <g id="Group_68093" data-name="Group 68093" transform="translate(0 0)" clip-path="url(#clip-path)">
        <path id="Path_1776" data-name="Path 1776" d="M10.052,12.35,2.571,19.841l2.421,2.414a6.858,6.858,0,0,0,9.669,0c.256-4.074,1.108-8.564-4.609-9.906" transform="translate(6.219 31.75)" fill="#319b6d"/>
        <path id="Path_1777" data-name="Path 1777" d="M37.08,35.971,21.352,51.678a6.783,6.783,0,0,1-4.821,1.98l.068-.137A5.241,5.241,0,0,0,20.737,48.4a5.111,5.111,0,0,0-1.675-3.794.373.373,0,0,0-.137-.171l-2.393-2.421L2,27.537a6.836,6.836,0,0,1,0-9.663L17.728,2.167a6.858,6.858,0,0,1,9.676,0l2.428,2.424-7.283,7.239,3.077,3.039L37.08,26.308a6.836,6.836,0,0,1,0,9.663" transform="translate(0 2.341)" fill="#54c997"/>
        <path id="Path_1778" data-name="Path 1778" d="M.79,20.262c.807-1.571,5.241-3.21,8.466.01l2.417,2.417,8.462-8.451,2.417-2.414L29.8,4.579,27.387,2.165a6.859,6.859,0,0,0-9.669,0L2,17.858a6.831,6.831,0,0,0,0,9.66A6.224,6.224,0,0,1,.79,20.262" transform="translate(0.01 2.344)" fill="#92ddbd"/>
      </g>
      <path id="Path_1905" data-name="Path 1905" d="M6.208,17.689,3.843,20.057a1.487,1.487,0,0,0-.43,1.041V28.2a1.477,1.477,0,0,1-.218.775L0,34.139l5.147-3.181a1.468,1.468,0,0,1,.771-.222l7.123-.007a1.47,1.47,0,0,0,1.041-.433l2.369-2.369,2.416-2.413L33.7,10.682a1.478,1.478,0,0,0,.433-1.044V1.478A1.476,1.476,0,0,0,32.651,0H24.5a1.478,1.478,0,0,0-1.044.433L8.621,15.276ZM30.716,8.225a1.478,1.478,0,0,1-.433,1.044L12.235,27.313l-3.314.007L26.45,7.689,6.826,25.214V21.9L24.87,3.846a1.484,1.484,0,0,1,1.044-.433h3.324a1.476,1.476,0,0,1,1.478,1.478Z" transform="translate(16.832 1.907)" fill="#319b6d"/>
    </g>
  </g>
</svg>
