<svg id="Instagram-Glyph-Color-Logo.wine" xmlns="http://www.w3.org/2000/svg" width="24" height="24" viewBox="0 0 24 24">
  <path id="Path_1791" data-name="Path 1791" d="M3.88-4.6A1.937,1.937,0,0,0,1.943-6.533,1.938,1.938,0,0,0,.005-4.6,1.937,1.937,0,0,0,1.943-2.662,1.936,1.936,0,0,0,3.88-4.6" transform="translate(16.161 10.492)" fill="#00cad9"/>
  <path id="Path_1792" data-name="Path 1792" d="M21.767-37.156a6.694,6.694,0,0,1-.412,2.228,3.707,3.707,0,0,1-.9,1.38,3.666,3.666,0,0,1-1.378.9,6.674,6.674,0,0,1-2.23.417c-1.265.056-1.64.068-4.848.068s-3.583-.012-4.848-.068a6.652,6.652,0,0,1-2.227-.417,3.67,3.67,0,0,1-1.38-.9,3.658,3.658,0,0,1-.9-1.38,6.616,6.616,0,0,1-.412-2.228C2.172-38.421,2.16-38.8,2.16-42s.011-3.586.073-4.851a6.66,6.66,0,0,1,.412-2.231,3.652,3.652,0,0,1,.9-1.377,3.712,3.712,0,0,1,1.38-.9,6.653,6.653,0,0,1,2.227-.415c1.265-.056,1.643-.07,4.848-.07s3.583.014,4.848.07a6.675,6.675,0,0,1,2.23.415,3.708,3.708,0,0,1,1.378.9,3.7,3.7,0,0,1,.9,1.377,6.739,6.739,0,0,1,.412,2.231c.059,1.265.073,1.643.073,4.851s-.014,3.582-.073,4.847Zm2.16-9.8a8.722,8.722,0,0,0-.56-2.913,5.849,5.849,0,0,0-1.382-2.127,5.9,5.9,0,0,0-2.124-1.383,8.747,8.747,0,0,0-2.914-.556C15.668-53.993,15.259-54,12-54s-3.669.011-4.948.073a8.782,8.782,0,0,0-2.914.556,5.915,5.915,0,0,0-2.121,1.383A5.9,5.9,0,0,0,.63-49.865a8.873,8.873,0,0,0-.56,2.913C.014-45.672,0-45.263,0-42s.014,3.666.07,4.945a8.91,8.91,0,0,0,.56,2.914,5.886,5.886,0,0,0,1.385,2.124,5.915,5.915,0,0,0,2.121,1.385,8.858,8.858,0,0,0,2.914.557C8.329-30.018,8.741-30,12-30s3.669-.014,4.948-.073a8.823,8.823,0,0,0,2.914-.557,5.9,5.9,0,0,0,2.124-1.385,5.838,5.838,0,0,0,1.382-2.124,8.758,8.758,0,0,0,.56-2.914C23.986-38.336,24-38.745,24-42s-.014-3.67-.073-4.949Z" transform="translate(0 54.004)" fill="#00cad9"/>
  <path id="Path_1793" data-name="Path 1793" d="M4.211-20.967a2.7,2.7,0,0,1-2.7-2.694,2.7,2.7,0,0,1,2.7-2.7,2.7,2.7,0,0,1,2.7,2.7,2.7,2.7,0,0,1-2.7,2.694Zm0-6.85A4.154,4.154,0,0,0,.06-23.661a4.152,4.152,0,0,0,4.151,4.152,4.154,4.154,0,0,0,4.153-4.152,4.156,4.156,0,0,0-4.153-4.156Z" transform="translate(7.788 35.661)" fill="#00cad9"/>
</svg>