<svg xmlns="http://www.w3.org/2000/svg" width="24" height="24" viewBox="0 0 24 24">
					  <path id="Path_1653" data-name="Path 1653" d="M1508.862,282.7h-15.925a4.021,4.021,0,0,0-4.037,4.037v15.925a4.021,4.021,0,0,0,4.037,4.037h15.925a4.021,4.021,0,0,0,4.037-4.037V286.737A4.021,4.021,0,0,0,1508.862,282.7Zm-10.916,19.439h-2.991V291.672h2.991Zm-1.5-11.963a1.5,1.5,0,1,1,1.5-1.5A1.5,1.5,0,0,1,1496.451,290.177Zm11.963,11.963h-2.991v-5.981a1.5,1.5,0,1,0-2.991,0v5.981h-2.99V291.672h2.99v1.869c.6-.822,1.57-1.869,2.617-1.869a3.541,3.541,0,0,1,3.364,3.738Z" transform="translate(-1488.9 -282.7)" fill="#00cad9"/>
					</svg>