<svg id="Layer_1" data-name="Layer 1" xmlns="http://www.w3.org/2000/svg" viewBox="0 0 1060 365.47">
    <defs>
        <style>
            .cls-1 {
                isolation: isolate;
            }

            .cls-2 {
                fill: #1f2345;
            }

            .cls-3 {
                fill: #38b07c;
            }

            .cls-4 {
                fill: #ffbe0d;
            }

            .cls-5 {
                fill: #e01e5a;
            }
        </style>
    </defs>
    <g id="UEG" class="cls-1"><g class="cls-1"><path class="cls-2" d="M373.54,341.16V288.92H386.8v52.19c0,11.64,8.2,20.15,18.48,20.15s18.58-8.51,18.58-20.15V288.92h13.31v52.24c0,19.32-13.94,33.46-31.84,33.46S373.54,360.48,373.54,341.16Z" transform="translate(-70 -267.27)"></path><path class="cls-2" d="M536.13,288.71v85.8h-.62l-53.82-56.2v54.85h-13.2v-85.7h.68l53.7,56.1V288.71Z" transform="translate(-70 -267.27)"></path><path class="cls-2" d="M568.28,288.92h13.2v84.14h-13.2Z" transform="translate(-70 -267.27)"></path><path class="cls-2" d="M609.65,331.09a43.51,43.51,0,1,1,43.43,43.32A43.64,43.64,0,0,1,609.65,331.09Zm73.65-.1a30.17,30.17,0,1,0-30.22,30.06A30.31,30.31,0,0,0,683.3,331Z" transform="translate(-70 -267.27)"></path><path class="cls-2" d="M792.37,288.71v85.8h-.62l-53.81-56.2v54.85H724.73v-85.7h.68l53.71,56.1V288.71Z" transform="translate(-70 -267.27)"></path><path class="cls-2" d="M387.53,430.11v21.55h31.84v13.15H387.53v23.28h36.9v13.16h-50.1V417.11h50.1v13Z" transform="translate(-70 -267.27)"></path><path class="cls-2" d="M521.47,459.28c0,25.84-16.65,42-43.37,42h-24V417.11h24C504.82,417.05,521.47,433.24,521.47,459.28Zm-13.36,0c0-17.85-11.59-29-30.06-29H467.29v57.88h10.92C496.58,488.09,508.11,477,508.11,459.23Z" transform="translate(-70 -267.27)"></path><path class="cls-2" d="M548.77,469.35V417.11H562V469.3c0,11.64,8.19,20.15,18.48,20.15s18.58-8.51,18.58-20.15V417.11H612.4v52.24c0,19.32-13.94,33.46-31.84,33.46S548.77,488.67,548.77,469.35Z" transform="translate(-70 -267.27)"></path><path class="cls-2" d="M639.7,459.23c0-23.7,19.78-43.58,43.42-43.58,10.91.15,21,4.8,29.23,12.84l-7.67,10.38c-5.9-5.89-13.57-9.81-21.82-9.81-15.24,0-29.8,13.36-29.8,30.22s14.77,30.06,29.85,30.06c8.62,0,16-4.27,21.82-10L712.35,490c-7.25,7.15-16.49,12.63-29,12.63C659.48,502.6,639.7,483,639.7,459.23Z" transform="translate(-70 -267.27)"></path><path class="cls-2" d="M791.79,488.46H752l-5.74,12.79H731.92l39.57-85.87h.78l39.56,85.87h-14.3Zm-5.11-11.33-14.77-32.88-14.83,32.88Z" transform="translate(-70 -267.27)"></path><path class="cls-2" d="M879.43,430.21H856.88v71H843.63v-71H821.08v-13.1h58.35Z" transform="translate(-70 -267.27)"></path><path class="cls-2" d="M905.91,417.11h13.2v84.14h-13.2Z" transform="translate(-70 -267.27)"></path><path class="cls-2" d="M947.28,459.28A43.5,43.5,0,1,1,990.7,502.6,43.64,43.64,0,0,1,947.28,459.28Zm73.64-.1a30.17,30.17,0,1,0-30.22,30.06A30.3,30.3,0,0,0,1020.92,459.18Z" transform="translate(-70 -267.27)"></path><path class="cls-2" d="M1130,416.9v85.81h-.63l-53.81-56.21v54.85h-13.2v-85.7h.67l53.72,56.1V416.9Z" transform="translate(-70 -267.27)"></path><path class="cls-2" d="M454.24,590.08c0,25-18.17,40.77-40,40.77a43.48,43.48,0,1,1-.47-87c10.6.05,22.71,5.16,30.64,12.89l-7.36,11c-6.58-6.47-15.45-10.54-23.43-10.54a30.34,30.34,0,0,0-29.86,30.27c0,16.5,13.1,30.06,31.06,30.06,14.45,0,25.31-8.82,25.31-21.66v-.25h-26V583.5h39.82A62.14,62.14,0,0,1,454.24,590.08Z" transform="translate(-70 -267.27)"></path><path class="cls-2" d="M528.61,629.44,506,596.86H495.62v32.58H482.41l-.05-84.14h26.15c15.66,0,28.5,12.06,28.5,27a24.62,24.62,0,0,1-16.65,23.44l24.48,33.67Zm-19.79-43.53c7.94.05,14.57-6.37,14.57-13.89,0-7.83-6.74-13.62-14.57-13.62H495.57v27.51Z" transform="translate(-70 -267.27)"></path><path class="cls-2" d="M565.67,587.47a43.51,43.51,0,1,1,43.42,43.32A43.64,43.64,0,0,1,565.67,587.47Zm73.64-.1a30.17,30.17,0,1,0-30.22,30.06A30.3,30.3,0,0,0,639.31,587.37Z" transform="translate(-70 -267.27)"></path><path class="cls-2" d="M680,597.54V545.3h13.25v52.19c0,11.64,8.2,20.15,18.48,20.15s18.58-8.51,18.58-20.15V545.3h13.31v52.24c0,19.32-13.93,33.46-31.84,33.46S680,616.86,680,597.54Z" transform="translate(-70 -267.27)"></path><path class="cls-2" d="M774.91,545.3H803c16.29,0,29.6,12.47,29.6,27.76,0,15-13.31,27.2-29.6,27.2H788.12v29.18H774.91ZM819.43,573c0-8-7.36-14.56-16.39-14.56H788.12v28.76l14.92.05C812.07,587.26,819.43,580.84,819.43,573Z" transform="translate(-70 -267.27)"></path></g></g>
    <path class="cls-2" d="M223.53,585.68H145.27a6,6,0,1,1,0-12.07h78.26a6,6,0,1,1,0,12.07Z" transform="translate(-70 -267.27)"></path>
    <path class="cls-2" d="M223.53,609.21H145.27a6,6,0,1,1,0-12.07h78.26a6,6,0,1,1,0,12.07Z" transform="translate(-70 -267.27)"></path>
    <path class="cls-2" d="M201.23,632.73H168.36a6,6,0,0,1,0-12.07h32.87a6,6,0,0,1,0,12.07Z" transform="translate(-70 -267.27)"></path>
    <path class="cls-2" d="M242.89,502.76c-2.92,12-3.52,26.63-3.52,50-6.51,0-109.82-.54-109.82-.54,0-50.52-3.12-60.41-26-89.63a115,115,0,0,1-16.4-20.71l66.66-40.83a22.85,22.85,0,0,1,31.4,7.57Z" transform="translate(-70 -267.27)"></path>
    <path class="cls-3" d="M298.86,381.66a113.8,113.8,0,0,1-33.4,80.74v.19c-7.57,9.57-12.95,17.07-16.8,24.64l-39.43-64.47a22.77,22.77,0,0,1,7.5-31.4l76-46.55A113,113,0,0,1,298.86,381.66Z" transform="translate(-70 -267.27)"></path>
    <path class="cls-4" d="M286.17,329.28l-71.1,43.49a22.83,22.83,0,0,1-31.41-7.64l-52-85a114.55,114.55,0,0,1,154.56,49.13Z" transform="translate(-70 -267.27)"></path>
    <path class="cls-5" d="M147.88,389.76,81,430.73a114.48,114.48,0,0,1,33.33-139.49l41.1,67.12A22.86,22.86,0,0,1,147.88,389.76Z" transform="translate(-70 -267.27)"></path>
</svg>