<svg id="Layer_1" data-name="Layer 1" xmlns="http://www.w3.org/2000/svg" xmlns:xlink="http://www.w3.org/1999/xlink" viewBox="0 0 990.83 1000"><defs><linearGradient id="linear-gradient" x1="8.39" y1="142.89" x2="11.13" y2="125.65" gradientTransform="matrix(33.33, 0, 0, -33.33, -33.33, 4766.67)" gradientUnits="userSpaceOnUse"><stop offset="0.01" stop-color="#00b7f0"/><stop offset="0.34" stop-color="#009de5"/><stop offset="0.76" stop-color="#0082d9"/><stop offset="1" stop-color="#0078d4"/></linearGradient><linearGradient id="linear-gradient-2" x1="14.38" y1="117.36" x2="29.55" y2="126.11" gradientTransform="matrix(33.33, 0, 0, -33.33, -33.33, 4766.67)" gradientUnits="userSpaceOnUse"><stop offset="0" stop-color="#0078d4"/><stop offset="0.37" stop-color="#007ad5"/><stop offset="0.57" stop-color="#0082d9"/><stop offset="0.73" stop-color="#0090df"/><stop offset="0.88" stop-color="#00a3e7"/><stop offset="1" stop-color="#00bcf2"/></linearGradient><linearGradient id="linear-gradient-3" x1="10.45" y1="137.31" x2="24.29" y2="113.34" gradientTransform="matrix(33.33, 0, 0, -33.33, -33.33, 4766.67)" gradientUnits="userSpaceOnUse"><stop offset="0" stop-color="#00b7f0"/><stop offset="1" stop-color="#007cc1"/></linearGradient></defs><path d="M583.93,291c0,160.71-130.71,291-292,291h0C130.72,582,0,451.71,0,291H0C0,130.29,130.72,0,292,0h0c161.25,0,292,130.29,292,291h0" transform="translate(0 0)" fill="url(#linear-gradient)"/><path d="M990.83,708.9c0,160.77-130.76,291.1-292.06,291.1S406.7,869.67,406.7,708.9,537.46,417.8,698.77,417.8,990.83,548.13,990.83,708.9h0" transform="translate(0 0)" fill="url(#linear-gradient-2)"/><path d="M1.07,315.9C14.32,476.58,155.32,596.1,316,582.85s280.2-154.26,267-314.94A292,292,0,0,0,328.3,2.23,530.52,530.52,0,0,0,1.07,315.9Z" transform="translate(0 0)" fill-rule="evenodd" opacity="0.05" style="isolation:isolate"/><path d="M990.07,688C979,527.09,839.66,405.59,678.75,416.61S396.34,567,407.37,727.93A292,292,0,0,0,672.3,998.8,530.52,530.52,0,0,0,990.07,688Z" transform="translate(0 0)" fill-rule="evenodd" opacity="0.05" style="isolation:isolate"/><path d="M14.73,382.43C64.81,535.63,229.6,619.23,382.8,569.15S619.59,354.28,569.51,201.08A291.88,291.88,0,0,0,394.67,18.53,496.45,496.45,0,0,0,14.73,382.43Z" transform="translate(0 0)" fill-rule="evenodd" opacity="0.1" style="isolation:isolate"/><path d="M976.8,619.6C927.89,466,763.7,381.07,610.07,430S371.54,643.07,420.44,796.7A292,292,0,0,0,603.73,984.23,496.42,496.42,0,0,0,976.8,619.6Z" transform="translate(0 0)" fill-rule="evenodd" opacity="0.1" style="isolation:isolate"/><path d="M25.47,410c65.36,147.29,237.75,213.7,385,148.33s213.7-237.75,148.33-385A291.74,291.74,0,0,0,421.93,30.37,479.55,479.55,0,0,0,25.47,410Z" transform="translate(0 0)" fill-rule="evenodd" opacity="0.1" style="isolation:isolate"/><path d="M966,591.43C901.55,443.7,729.52,376.21,581.78,440.69S366.56,677.21,431,824.94a291.88,291.88,0,0,0,144.56,148A479.52,479.52,0,0,0,966,591.43Z" transform="translate(0 0)" fill-rule="evenodd" opacity="0.1" style="isolation:isolate"/><path d="M957.9,502.17c0,254.54-207,460.9-462.43,460.9h0C240.07,963.07,33,756.71,33,502.17h0c0-254.55,207-460.9,462.44-460.9h0c255.39,0,462.43,206.35,462.43,460.9h0" transform="translate(0 0)" fill="url(#linear-gradient-3)"/><path d="M365.43,486.17a145.26,145.26,0,0,1-45.56-48.07,132.74,132.74,0,0,1-15.6-66.43,119.39,119.39,0,0,1,28.13-80.4,169.32,169.32,0,0,1,73.33-49,283.29,283.29,0,0,1,96-16.17A373.31,373.31,0,0,1,565.6,231a230.33,230.33,0,0,1,44.3,11.43,85.9,85.9,0,0,1,34.67,22.14,44.83,44.83,0,0,1,10.7,29.76,43.15,43.15,0,0,1-11.27,31,37.49,37.49,0,0,1-28.3,11.8,50.94,50.94,0,0,1-21-4.74,381.52,381.52,0,0,0-50.1-18.33,182,182,0,0,0-48.27-6,110.16,110.16,0,0,0-60.47,15.47,50.27,50.27,0,0,0-24.13,45.16,45.45,45.45,0,0,0,12.53,31.77A114.4,114.4,0,0,0,458,424.67q21.24,10.53,63.33,27.93a65.73,65.73,0,0,1,9.07,3.63,450.73,450.73,0,0,1,78.4,40.3,158.09,158.09,0,0,1,48.27,49.54,130.68,130.68,0,0,1,17.43,68.8,138.41,138.41,0,0,1-24.13,82.93,143.6,143.6,0,0,1-67.5,50.1A284.36,284.36,0,0,1,481.4,764.43a319.66,319.66,0,0,1-138.3-26.16,75.38,75.38,0,0,1-28.47-22.14A49.75,49.75,0,0,1,305.37,686a39.37,39.37,0,0,1,12.16-30.67,44.85,44.85,0,0,1,31.37-11.06,80.26,80.26,0,0,1,36.67,9.43q21.06,10.53,33.23,15.8a167.25,167.25,0,0,0,28.67,9.07,164.59,164.59,0,0,0,36.83,3.8,98.38,98.38,0,0,0,61.9-16.5,54.53,54.53,0,0,0,20.87-45.2,48,48,0,0,0-13.07-33,138.82,138.82,0,0,0-38.47-28Q490.11,546.26,444,527a442.77,442.77,0,0,1-78.57-40.83" transform="translate(0 0)" fill="#fff" fill-rule="evenodd"/></svg>