<svg xmlns="http://www.w3.org/2000/svg" viewBox="0 0 24 24">
  <g id="noun_clock_1339923" transform="translate(-21 -20)">
    <g id="Group_68476" data-name="Group 68476" transform="translate(0 -953.362)">
      <path id="Path_3324" data-name="Path 3324" d="M33,973.362a12,12,0,1,0,12,12A12.019,12.019,0,0,0,33,973.362Zm0,2.483a9.517,9.517,0,1,1-9.517,9.517A9.5,9.5,0,0,1,33,975.845Zm0,2.069a1.241,1.241,0,0,0-1.241,1.241v6.207A1.241,1.241,0,0,0,33,986.6h5.379a1.241,1.241,0,1,0,0-2.483H34.241v-4.966A1.241,1.241,0,0,0,33,977.914Z" fill="#0b154b"/>
    </g>
  </g>
</svg>