<svg xmlns="http://www.w3.org/2000/svg" width="24" height="19.514" viewBox="0 0 24 19.514">
					  <path id="Path_172" data-name="Path 172" d="M1362.9,288.518a8.85,8.85,0,0,1-2.841.748,4.831,4.831,0,0,0,2.168-2.692,9.425,9.425,0,0,1-3.14,1.2,4.854,4.854,0,0,0-3.589-1.57,4.93,4.93,0,0,0-4.934,4.935,5.776,5.776,0,0,0,.149,1.121,13.8,13.8,0,0,1-10.094-5.159,4.707,4.707,0,0,0-.673,2.467,5.058,5.058,0,0,0,2.168,4.112,4.567,4.567,0,0,1-2.243-.6v.075a4.892,4.892,0,0,0,3.962,4.785,3.7,3.7,0,0,1-1.271.15,3.639,3.639,0,0,1-.9-.075,4.994,4.994,0,0,0,4.561,3.439,9.657,9.657,0,0,1-6.131,2.093,6.432,6.432,0,0,1-1.2-.075,13.947,13.947,0,0,0,21.533-11.738v-.6A13.523,13.523,0,0,0,1362.9,288.518Z" transform="translate(-1338.9 -286.2)" fill="#00cad9"/>
					</svg>