<svg width="31" height="30" viewBox="0 0 31 30" fill="none" xmlns="http://www.w3.org/2000/svg">
<path d="M15.332 30C23.6062 30 30.332 23.2742 30.332 15C30.332 6.72581 23.6062 0 15.332 0C7.05784 0 0.332031 6.72581 0.332031 15C0.332031 23.2742 7.05784 30 15.332 30ZM3.71913 20.9758L9.8159 20.9274C10.4933 23.371 11.6304 25.7419 13.1788 27.871C9.04171 27.1935 5.58203 24.5564 3.71913 20.9758ZM11.3643 10.8871H18.9611C19.5175 13.5484 19.5175 16.2823 19.0094 18.9435L11.3643 18.9919C10.8078 16.3065 10.8078 13.5484 11.3643 10.8871ZM15.1627 27.3145C13.6385 25.3548 12.5256 23.2016 11.8482 20.9274L18.5014 20.879C17.7998 23.1532 16.6869 25.3306 15.1627 27.3145ZM17.0982 27.9435C18.6949 25.7661 19.832 23.371 20.5095 20.8548L27.0175 20.8065C25.1304 24.6048 21.453 27.3387 17.0982 27.9435ZM28.3965 15C28.3965 16.3548 28.1788 17.6613 27.8159 18.871L20.9691 18.9194C21.453 16.2581 21.4288 13.5484 20.9207 10.8871H27.7191C28.1546 12.1694 28.3965 13.5726 28.3965 15ZM26.8965 8.95161H20.4611C19.7594 6.53226 18.6465 4.18548 17.0982 2.05645C21.3804 2.6371 24.9853 5.27419 26.8965 8.95161ZM18.453 8.95161H11.8724C12.574 6.72581 13.6627 4.62097 15.1627 2.68548C16.6627 4.62097 17.7514 6.72581 18.453 8.95161ZM13.1788 2.12903C11.6546 4.23387 10.5417 6.53226 9.86429 8.95161H3.76752C5.63042 5.39516 9.0659 2.80645 13.1788 2.12903ZM9.40461 10.8871C8.89655 13.5726 8.89655 16.3065 9.38042 18.9919L2.92074 19.0403C2.48526 17.7581 2.26752 16.4032 2.26752 15C2.26752 13.5726 2.50945 12.1694 2.94493 10.8871H9.40461Z" fill="#3C5AAA"/>
</svg>
